# xmcd
#
# Track frame offsets:
# 150
# 16425
# 28421
# 40536
# 54256
# 70413
# 87832
# 102931
# 116087
# 131203
# 143337
# 156495
# 169799
#
# Disc length: 2498 seconds
#
#
# Revision: 0
# Processed by: cddbd v1.5.2PL0 Copyright (c) Steve Scherf et al.
# Submitted via: FreeRIP 2.96 
#
DISCID=af09c00d
DTITLE=Batidão Sertanejo - CD 3 - Batidão Sertanejo - CD 3
DYEAR=2009
DGENRE=Sertanejo
TTITLE0=Meteoro (Ao Vivo) Luan Santana
TTITLE1=Robin Hood Da Paixão (Ao Vivo) Hugo Pena and Gabriel
TTITLE2=Ei, Psiu, Beijo, Me Liga (Ao Vivo) Michel Telô
TTITLE3=Sufoco (Ao Vivo) João Bosco and Vinícius
TTITLE4=Amor Verdadeiro (Ao Vivo) Alan and Alex
TTITLE5=Saudade (Ao Vivo) Pedro Paulo and Matheus
TTITLE6=Promessa (Ao Vivo) João Paulo and Eduardo
TTITLE7=O Amor É Assim (Ao Vivo) Guilherme and Santiago
TTITLE8=Sob A Lua E Os Olhares - Léo and Gabriel
TTITLE9=Bateu, Ficou - Fabricio and Fabian
TTITLE10=Marvada Pinga (Ao Vivo) Marco and Mário
TTITLE11=Você Não Vale Nada (Ao Vivo) Roger and Robson
TTITLE12=Largado Demais (A Dona Do Meu Coração) Tonny and Kleber
EXTD=Ano 2009 - M.P.A.
EXTT0=
EXTT1=
EXTT2=
EXTT3=
EXTT4=
EXTT5=
EXTT6=
EXTT7=
EXTT8=
EXTT9=
EXTT10=
EXTT11=
EXTT12=
PLAYORDER=
